<svg width="36" height="48" viewBox="0 0 36 48" fill="none" xmlns="http://www.w3.org/2000/svg">
<path d="M18 0C8.0625 0 0 8.15625 0 18C0 25.2188 2.34375 27.375 16.125 47.1562C16.5938 47.7188 17.25 48 18 48C18.6562 48 19.3125 47.7188 19.7812 47.1562C33.5625 27.375 36 25.2188 36 18C36 8.15625 27.8438 0 18 0ZM18 41.9062C16.5938 39.9375 15.375 38.1562 14.25 36.6562C5.4375 24.0938 4.5 22.5938 4.5 18C4.5 10.5938 10.5 4.5 18 4.5C25.4062 4.5 31.5 10.5938 31.5 18C31.5 22.5938 30.4688 24.0938 21.6562 36.6562C20.5312 38.1562 19.3125 39.9375 18 41.9062ZM27.2812 14.4375L25.125 12.2812C24.75 11.9062 24.1875 11.9062 23.8125 12.2812L15.6562 20.3438L12.0938 16.7812C11.7188 16.4062 11.1562 16.4062 10.7812 16.7812L8.625 18.9375C8.25 19.3125 8.25 19.9688 8.625 20.25L15 26.7188C15.2812 27.0938 15.9375 27.0938 16.3125 26.7188L27.2812 15.75C27.6562 15.375 27.6562 14.8125 27.2812 14.4375Z" fill="#E30088"/>
</svg>
