<svg width="45" height="49" viewBox="0 0 45 49" fill="none" xmlns="http://www.w3.org/2000/svg">
<path d="M24.1875 38.7188L21.5625 32.1562C20.8125 30.2812 18.9375 29.25 17.0625 29.4375L15 29.625C14.4375 27 14.3438 24.1875 15 21.4688L17.0625 21.6562C18.9375 21.8438 20.8125 20.8125 21.5625 18.9375L24.1875 12.375C25.0312 10.4062 24.2812 8.15625 22.4062 7.03125L17.1562 3.75C15.4688 2.625 13.2188 2.8125 11.7188 4.3125C0.09375 16.0312 0 34.9688 11.7188 46.7812C13.2188 48.2812 15.4688 48.4688 17.1562 47.3438L22.4062 44.0625C24.2812 42.9375 25.0312 40.6875 24.1875 38.7188ZM14.9062 43.5C4.96875 33.5625 4.96875 17.5312 14.9062 7.59375L19.9688 10.7812L17.4375 17.25L11.8125 16.6875C9.46875 23.1562 9.46875 27.9375 11.8125 34.4062L17.4375 33.8438L19.9688 40.3125L14.9062 43.5ZM29.4375 9.5625L28.4062 10.5938C28.0312 10.9688 27.9375 11.625 28.2188 12.0938C28.7812 12.75 29.25 14.1562 29.25 15V15.0938C29.25 15.9375 28.7812 17.3438 28.2188 18C27.9375 18.4688 28.0312 19.125 28.4062 19.5L29.4375 20.5312C29.9062 21 30.75 21 31.125 20.4375C32.25 18.9375 33 17.0625 33 15C33 13.0312 32.25 11.1562 31.125 9.65625C30.75 9.09375 29.9062 9.09375 29.4375 9.5625ZM37.9688 1.03125L36.9375 2.0625C36.4688 2.53125 36.4688 3.1875 36.8438 3.65625C39.6562 6.75 41.25 10.7812 41.25 15C41.25 19.3125 39.6562 23.3438 36.8438 26.4375C36.4688 26.9062 36.4688 27.5625 36.9375 28.0312L37.9688 29.0625C38.4375 29.5312 39.1875 29.5312 39.6562 29.0625C42.9375 25.3125 45 20.4375 45 15C45 9.65625 42.9375 4.78125 39.6562 1.03125C39.1875 0.5625 38.4375 0.5625 37.9688 1.03125ZM33.75 5.25L32.625 6.375C32.25 6.75 32.25 7.40625 32.625 7.875C34.3125 9.84375 35.25 12.375 35.25 15C35.25 17.7188 34.3125 20.25 32.625 22.2188C32.25 22.6875 32.25 23.3438 32.625 23.7188L33.75 24.8438C34.2188 25.3125 34.9688 25.2188 35.3438 24.75C37.5938 22.125 39 18.75 39 15C39 11.3438 37.5938 7.96875 35.3438 5.34375C34.9688 4.875 34.2188 4.78125 33.75 5.25Z" fill="#E30088"/>
</svg>
