<svg width="27" height="22" viewBox="0 0 27 22" fill="none" xmlns="http://www.w3.org/2000/svg">
<path d="M26.4375 8C26.7188 8 27 8.28125 27 8.5625V9.6875C27 10.0156 26.7188 10.25 26.4375 10.25H25.5469L24.2344 19.5781C24.0938 20.7031 23.1562 21.5 22.0312 21.5H4.92188C3.79688 21.5 2.85938 20.7031 2.71875 19.5781L1.40625 10.25H0.5625C0.234375 10.25 0 10.0156 0 9.6875V8.5625C0 8.28125 0.234375 8 0.5625 8H3.9375L9.98438 0.921875C10.4062 0.453125 11.1094 0.40625 11.5781 0.78125C12.0469 1.20312 12.0938 1.90625 11.7188 2.375L6.89062 8H20.0625L15.2344 2.375C14.8594 1.90625 14.9062 1.20312 15.375 0.78125C15.8438 0.40625 16.5469 0.453125 16.9688 0.921875L23.0156 8H26.4375ZM22.0312 19.25L23.25 10.25H3.70312L4.92188 19.25H22.0312ZM14.625 12.875V16.625C14.625 17.2812 14.1094 17.75 13.5 17.75C12.8438 17.75 12.375 17.2812 12.375 16.625V12.875C12.375 12.2656 12.8438 11.75 13.5 11.75C14.1094 11.75 14.625 12.2656 14.625 12.875ZM19.875 12.875V16.625C19.875 17.2812 19.3594 17.75 18.75 17.75C18.0938 17.75 17.625 17.2812 17.625 16.625V12.875C17.625 12.2656 18.0938 11.75 18.75 11.75C19.3594 11.75 19.875 12.2656 19.875 12.875ZM9.375 12.875V16.625C9.375 17.2812 8.85938 17.75 8.25 17.75C7.59375 17.75 7.125 17.2812 7.125 16.625V12.875C7.125 12.2656 7.59375 11.75 8.25 11.75C8.85938 11.75 9.375 12.2656 9.375 12.875Z" fill="white"/>
</svg>
