<svg width="15" height="21" viewBox="0 0 15 21" fill="none" xmlns="http://www.w3.org/2000/svg">
<path d="M7.48192 0.75293C3.82935 0.75293 0.87207 3.91178 0.87207 7.80245C0.87207 11.3689 6.4529 20.9566 7.48192 20.9566C8.51094 20.9566 14.0918 11.2392 14.0918 7.80245C14.0825 3.91178 11.1252 0.75293 7.48192 0.75293Z" fill="black"/>
<path d="M7.1593 2.24911C7.15721 2.24911 7.15494 2.24911 7.15285 2.24911C7.09572 2.25083 7.02956 2.25378 6.96162 2.26518L6.78938 2.28802C6.68952 2.30124 6.61368 2.38321 6.60896 2.48279C6.60605 2.54487 6.58702 2.60817 6.55537 2.66058C6.51527 2.72679 6.47249 2.76221 6.45024 2.76689C6.44906 2.76716 6.44847 2.76748 6.44761 2.76748C6.44057 2.76925 6.43294 2.77011 6.42477 2.77011C6.35447 2.77011 6.24902 2.70454 6.18345 2.57884C6.14739 2.51063 6.0771 2.46817 5.9998 2.46817C5.97664 2.46817 5.9538 2.47199 5.93214 2.47957L5.76693 2.53611C5.76575 2.53638 5.76457 2.53697 5.76371 2.53729C5.73941 2.54637 5.71426 2.55454 5.68787 2.56335C5.65885 2.57303 5.62902 2.58297 5.59914 2.59437C5.50246 2.63097 5.44715 2.7297 5.46763 2.82924C5.49896 2.98132 5.43865 3.11892 5.38502 3.14353C5.38416 3.1438 5.38325 3.14412 5.38239 3.14471C5.36422 3.15348 5.34283 3.15788 5.31854 3.15788C5.23921 3.15788 5.14752 3.10929 5.07927 3.03078C5.04062 2.98568 4.98381 2.95989 4.92373 2.95989C4.88772 2.95989 4.85199 2.96929 4.82067 2.98713L4.80893 2.99386C4.75886 3.02201 4.70732 3.0513 4.65722 3.08877L4.5146 3.19099C4.43318 3.24925 4.40478 3.35679 4.44663 3.44666C4.51196 3.58607 4.4812 3.72812 4.43464 3.77557C4.41209 3.79433 4.37664 3.80459 4.33388 3.80459C4.26301 3.80459 4.18278 3.77675 4.11395 3.72871C4.08027 3.70527 4.04073 3.69297 3.99913 3.69297C3.94201 3.69297 3.88666 3.71699 3.84684 3.75859L3.72703 3.8851C3.72646 3.88569 3.72616 3.88628 3.72557 3.88688C3.70919 3.90472 3.69278 3.92202 3.67608 3.9396C3.65265 3.96389 3.62863 3.9891 3.60522 4.01575C3.53726 4.09277 3.53461 4.20553 3.59848 4.28373C3.69659 4.40379 3.70682 4.55347 3.67051 4.60002C3.66963 4.6012 3.66876 4.60233 3.66787 4.60356C3.63713 4.64602 3.573 4.67118 3.49596 4.67118C3.44762 4.67118 3.39638 4.66096 3.34747 4.64193C3.32345 4.63226 3.29826 4.62754 3.27279 4.62754C3.20221 4.62754 3.13688 4.663 3.09824 4.72277L3.09267 4.73121C3.06045 4.78076 3.02733 4.83171 3.00041 4.88997L2.92192 5.04492C2.87652 5.13483 2.90082 5.2435 2.98021 5.30353C3.0297 5.34132 3.07099 5.39259 3.09618 5.44822C3.13249 5.53141 3.13013 5.58086 3.12428 5.59553L3.12283 5.59876C3.10173 5.65379 3.00687 5.7121 2.87271 5.7121C2.85454 5.7121 2.83609 5.71124 2.81793 5.70888C2.80973 5.70797 2.80156 5.70711 2.79306 5.70711C2.70052 5.70711 2.61849 5.76978 2.5936 5.85942L2.54645 6.02753C2.54615 6.02899 2.54587 6.03017 2.54557 6.0313C2.53913 6.05741 2.53121 6.08375 2.52332 6.11186C2.51511 6.1397 2.50661 6.1684 2.4993 6.19796C2.47411 6.29846 2.52389 6.40036 2.6179 6.44019C2.75907 6.50022 2.83874 6.62587 2.83084 6.68505C2.81881 6.73627 2.78807 6.77873 2.73945 6.81184C2.69085 6.84494 2.62876 6.86692 2.56432 6.87423C2.46532 6.88508 2.38831 6.96592 2.38125 7.06637L2.36954 7.23798C2.36926 7.24474 2.36898 7.25174 2.36926 7.2585L2.37424 7.4313C2.37717 7.53056 2.44949 7.61403 2.54645 7.63015C2.60884 7.64042 2.67032 7.66707 2.72013 7.70513C2.76755 7.74173 2.7995 7.78741 2.80798 7.82992C2.8156 7.90253 2.73477 8.01206 2.58862 8.06538C2.49284 8.10025 2.43633 8.20275 2.45771 8.30379C2.46384 8.33335 2.47087 8.36205 2.47791 8.39016C2.48493 8.41827 2.49167 8.44493 2.49696 8.47131C2.49725 8.47276 2.49753 8.47395 2.49781 8.47513L2.53824 8.64587C2.56079 8.73988 2.6434 8.80577 2.73945 8.80577C2.74413 8.80577 2.74882 8.8055 2.75322 8.80518C2.7626 8.80459 2.77197 8.80431 2.78134 8.80431C2.9228 8.80431 3.03731 8.87488 3.05606 8.9247C3.07743 9.00086 3.03206 9.12737 2.90492 9.21434C2.82146 9.27115 2.79158 9.37954 2.83405 9.47209L2.90639 9.62995C2.931 9.68939 2.96204 9.74156 2.9922 9.79189L2.99777 9.80155C3.03527 9.86455 3.10351 9.90377 3.17642 9.90377C3.19811 9.90377 3.21977 9.90027 3.24057 9.89323C3.28185 9.87948 3.32462 9.87244 3.36769 9.87244C3.46404 9.87244 3.53871 9.90818 3.56243 9.94361C3.56303 9.94446 3.56362 9.94536 3.56451 9.94623C3.60695 10.0057 3.58762 10.1416 3.48248 10.2576C3.41454 10.3322 3.4119 10.4485 3.47634 10.5279C3.49861 10.5554 3.52144 10.5815 3.5437 10.6064C3.55952 10.6246 3.57533 10.6424 3.59085 10.6609C3.59143 10.6614 3.59202 10.6621 3.59262 10.6627L3.70801 10.7947C3.74754 10.8398 3.80465 10.8659 3.86468 10.8659C3.90277 10.8659 3.93997 10.8553 3.97218 10.8354C4.03691 10.7959 4.11511 10.773 4.18656 10.773C4.24398 10.773 4.28088 10.7877 4.29581 10.8006C4.35057 10.8589 4.36873 10.9927 4.29524 11.1289C4.24777 11.2164 4.27209 11.3257 4.35293 11.3884L4.4903 11.4953C4.5386 11.5348 4.58928 11.5662 4.63849 11.5963L4.6499 11.6036C4.683 11.6242 4.72137 11.635 4.76032 11.635C4.81597 11.635 4.86987 11.6124 4.90793 11.5726C4.95216 11.5269 5.00956 11.4909 5.06959 11.4712C5.0977 11.4619 5.12468 11.4572 5.15015 11.4572C5.17622 11.4572 5.20024 11.4619 5.22218 11.471C5.28603 11.5058 5.33026 11.6341 5.29102 11.7844C5.26554 11.8825 5.31768 11.9868 5.41227 12.0272C5.44183 12.0398 5.47085 12.0506 5.49928 12.0615C5.52562 12.0711 5.54991 12.0804 5.57394 12.0904C5.5748 12.091 5.57598 12.0913 5.57716 12.0916L5.7406 12.1552C5.76489 12.1645 5.79009 12.1692 5.81616 12.1692C5.88877 12.1692 5.95703 12.1305 5.99395 12.0684C6.06129 11.9554 6.17845 11.8854 6.24875 11.8854C6.25547 11.8854 6.26133 11.886 6.26601 11.8874C6.26719 11.8877 6.26805 11.888 6.26923 11.888C6.3032 11.8968 6.34334 11.9381 6.37672 11.9987C6.40306 12.0494 6.41741 12.1121 6.41714 12.1754C6.41627 12.2767 6.48889 12.3631 6.58966 12.3804L6.76009 12.4096C6.82779 12.424 6.89423 12.4296 6.95104 12.4334C6.95635 12.434 6.9613 12.434 6.96625 12.434C7.05858 12.434 7.14054 12.373 7.16575 12.2857C7.20762 12.1402 7.3186 12.0506 7.37955 12.0506C7.38068 12.0506 7.38159 12.0506 7.38277 12.0509C7.38572 12.0509 7.38863 12.0511 7.39158 12.0511C7.39271 12.0511 7.3939 12.0511 7.39539 12.0509H7.39798C7.46973 12.0509 7.56814 12.1428 7.6027 12.2913C7.6244 12.385 7.70783 12.4507 7.80541 12.4507C7.80746 12.4507 7.80982 12.4507 7.81209 12.4507C7.86895 12.4489 7.93511 12.446 8.00305 12.4345L8.17529 12.4117C8.27542 12.3985 8.35131 12.3165 8.35599 12.2169C8.35862 12.1548 8.37765 12.0916 8.4093 12.0392C8.44972 11.973 8.49217 11.9375 8.51474 11.9328C8.51561 11.9326 8.51652 11.9323 8.51738 11.9323C8.52442 11.9305 8.53205 11.9296 8.53995 11.9296C8.6102 11.9296 8.71564 11.9953 8.78154 12.1209C8.81728 12.1891 8.88757 12.2316 8.96518 12.2316C8.98802 12.2316 9.01087 12.2278 9.03253 12.2202L9.19805 12.1636C9.19887 12.1634 9.2001 12.1628 9.20123 12.1625C9.22553 12.1534 9.25046 12.1451 9.2768 12.1364C9.30581 12.1267 9.33569 12.1168 9.36585 12.1053C9.46221 12.0688 9.51757 11.97 9.49704 11.8705C9.46571 11.7185 9.52601 11.5805 9.57992 11.5562C9.58055 11.5556 9.58142 11.5556 9.58228 11.555C9.60044 11.5463 9.62215 11.5419 9.64613 11.5419C9.72551 11.5419 9.81719 11.5905 9.88545 11.669C9.92437 11.7141 9.9809 11.7398 10.0409 11.7398C10.0769 11.7398 10.1127 11.7304 10.144 11.7126L10.1557 11.7058C10.2058 11.6777 10.2577 11.6485 10.3075 11.611L10.4501 11.5087C10.5315 11.4504 10.5602 11.343 10.518 11.2531C10.4527 11.1136 10.4834 10.9713 10.5301 10.9242C10.5526 10.9054 10.5883 10.8952 10.6308 10.8952C10.7017 10.8952 10.7819 10.9227 10.8507 10.971C10.8845 10.9944 10.9243 11.0068 10.9656 11.0068C11.0227 11.0068 11.0783 10.9828 11.1178 10.9412L11.2376 10.8146C11.2383 10.8141 11.2388 10.8135 11.2394 10.8129C11.2555 10.795 11.2722 10.7777 11.2889 10.7601C11.3121 10.7358 11.3363 10.7106 11.3597 10.684C11.4274 10.607 11.43 10.4942 11.3662 10.416C11.2681 10.296 11.2578 10.1463 11.2942 10.0997L11.2968 10.0962C11.3275 10.0538 11.392 10.0286 11.4687 10.0286C11.517 10.0286 11.5683 10.0388 11.6175 10.0578C11.6412 10.0675 11.6664 10.0722 11.6922 10.0722C11.7625 10.0722 11.8278 10.0368 11.8665 9.97697L11.872 9.96853C11.9043 9.91904 11.9373 9.86808 11.9643 9.80977L12.0427 9.65455C12.0885 9.56492 12.0638 9.45625 11.9845 9.39594C11.935 9.35843 11.894 9.30716 11.8685 9.25157C11.8325 9.16838 11.8345 9.11888 11.8406 9.10421C11.841 9.10308 11.8416 9.10217 11.8419 9.10099C11.8629 9.04595 11.9578 8.98769 12.0923 8.98769C12.1101 8.98769 12.1286 8.98855 12.1467 8.99087C12.1549 8.99173 12.1634 8.99236 12.1716 8.99236C12.2642 8.99236 12.3462 8.92997 12.3714 8.84033L12.4182 8.67221C12.4186 8.67076 12.4191 8.66958 12.4194 8.6684C12.4255 8.64233 12.4334 8.61599 12.4417 8.58788C12.4496 8.56005 12.4581 8.53135 12.4657 8.50178C12.4906 8.40129 12.4408 8.29938 12.3468 8.25956C12.2056 8.19952 12.1262 8.07387 12.1341 8.0147C12.1459 7.96347 12.1766 7.92097 12.2252 7.88791C12.2741 7.8548 12.3362 7.83251 12.4003 7.82551C12.4993 7.81466 12.5764 7.73383 12.5834 7.63338L12.5951 7.46145C12.5957 7.45473 12.5957 7.44801 12.5957 7.44124L12.5904 7.26845C12.5878 7.16918 12.5152 7.08571 12.4186 7.06959C12.3562 7.05933 12.2943 7.03267 12.2446 6.9943C12.1974 6.9577 12.1652 6.91229 12.1567 6.86955C12.1494 6.79721 12.2302 6.68768 12.376 6.63437C12.4719 6.59954 12.5284 6.497 12.5073 6.39596C12.5011 6.36639 12.4938 6.33738 12.4868 6.30954C12.4797 6.28143 12.473 6.25477 12.4677 6.22843C12.4675 6.22698 12.4671 6.2258 12.4671 6.22462L12.4265 6.05387C12.4042 5.95987 12.3213 5.89398 12.2252 5.89398C12.2205 5.89398 12.2162 5.89398 12.2114 5.89457C12.2021 5.89484 12.1927 5.89543 12.1833 5.89543C12.0419 5.89543 11.9273 5.82486 11.9086 5.77504C11.8873 5.69893 11.9326 5.57237 12.06 5.48541C12.1432 5.4286 12.1731 5.31993 12.1306 5.22765L12.0583 5.0698C12.034 5.01036 12.0027 4.95823 11.9727 4.90755L11.9669 4.89819C11.9294 4.83521 11.8612 4.79597 11.7886 4.79597C11.7666 4.79597 11.7449 4.79947 11.7241 4.80651C11.6828 4.82031 11.6401 4.8273 11.597 4.8273C11.501 4.8273 11.4263 4.79156 11.4022 4.75614C11.4017 4.75524 11.4011 4.75437 11.4005 4.75351C11.3577 4.69407 11.377 4.55815 11.4825 4.44217C11.5505 4.36747 11.5531 4.25121 11.4886 4.17156C11.4664 4.14431 11.4432 4.11825 11.4213 4.09332C11.4051 4.0752 11.3893 4.05735 11.3738 4.03887C11.3732 4.03828 11.3727 4.03769 11.3724 4.03714L11.257 3.90504C11.2171 3.85963 11.16 3.83383 11.1 3.83383C11.0622 3.83383 11.0247 3.84441 10.9925 3.86403C10.9278 3.90386 10.8499 3.9267 10.7781 3.9267C10.7207 3.9267 10.6838 3.91208 10.6692 3.89918C10.6144 3.84087 10.596 3.70705 10.6698 3.57054C10.7169 3.48298 10.6926 3.37404 10.6121 3.31137L10.4744 3.20448C10.4261 3.16492 10.3754 3.13359 10.3265 3.10343L10.315 3.09608C10.2817 3.0756 10.2436 3.06447 10.2044 3.06447C10.1487 3.06447 10.0951 3.08731 10.0567 3.12682C10.0128 3.17282 9.95543 3.20883 9.89507 3.2285C9.86696 3.23785 9.84031 3.24253 9.81451 3.24253C9.78877 3.24253 9.76443 3.23785 9.74276 3.22877C9.67896 3.19394 9.63468 3.06565 9.67365 2.91538C9.69912 2.81725 9.64704 2.71271 9.55244 2.67257C9.52311 2.65999 9.49386 2.64914 9.46544 2.63833C9.43932 2.62866 9.41476 2.6193 9.39073 2.60935C9.38983 2.60876 9.38869 2.60817 9.38783 2.60817L9.22439 2.5446C9.2001 2.5352 9.17457 2.53057 9.14851 2.53057C9.07589 2.53057 9.00764 2.56921 8.97077 2.63129C8.90365 2.74436 8.78621 2.81434 8.71624 2.81434C8.70951 2.81434 8.70334 2.81375 8.69866 2.8123L8.69571 2.81144C8.66147 2.8029 8.62137 2.76162 8.58795 2.701C8.56161 2.65032 8.54726 2.58765 8.5478 2.52439C8.54839 2.42303 8.47583 2.33666 8.37506 2.3194L8.20458 2.29011C8.13719 2.27576 8.07076 2.27018 8.01363 2.26636C8.00863 2.26577 8.00368 2.26577 7.99869 2.26577C7.90614 2.26577 7.82412 2.32671 7.79892 2.41399C7.75705 2.55954 7.64634 2.64914 7.58512 2.64914C7.58426 2.64914 7.58308 2.64914 7.5819 2.64886C7.57899 2.64886 7.57636 2.64859 7.57341 2.64859C7.57195 2.64859 7.57082 2.64859 7.56959 2.64886H7.56669C7.49525 2.64886 7.39653 2.5569 7.36197 2.40814C7.34031 2.31441 7.25684 2.24911 7.1593 2.24911ZM7.1593 2.37035C7.19913 2.37035 7.23482 2.39701 7.24395 2.43597C7.28904 2.62952 7.42609 2.77011 7.56669 2.77011C7.56873 2.77011 7.57109 2.77011 7.57341 2.76984C7.57722 2.77011 7.58131 2.77043 7.58512 2.77043C7.70873 2.77043 7.861 2.63688 7.91554 2.44765C7.92603 2.41077 7.9609 2.38702 7.99869 2.38702C8.00073 2.38702 8.00282 2.38702 8.00482 2.38734C8.06431 2.39143 8.12348 2.39669 8.18174 2.409L8.35453 2.43888C8.39586 2.44592 8.42687 2.48161 8.4266 2.52353C8.42601 2.61167 8.44681 2.69309 8.48105 2.75812C8.52528 2.83891 8.58763 2.90921 8.66556 2.92914C8.6814 2.93328 8.69839 2.93559 8.71624 2.93559C8.8334 2.93559 8.98716 2.84127 9.07503 2.69309C9.09084 2.66676 9.11922 2.65177 9.14851 2.65177C9.15936 2.65177 9.16994 2.65354 9.18016 2.65763L9.34387 2.7212C9.39691 2.74346 9.45195 2.76162 9.50499 2.78419C9.5445 2.80086 9.56707 2.84363 9.55626 2.88491C9.50553 3.08086 9.56293 3.27386 9.69036 3.3383C9.72642 3.35442 9.76856 3.36378 9.81451 3.36378C9.85171 3.36378 9.89126 3.35765 9.93258 3.34389C10.0058 3.32014 10.0819 3.27623 10.1443 3.2112C10.1604 3.19421 10.1824 3.18599 10.2044 3.18599C10.2204 3.18599 10.2366 3.1904 10.2509 3.19921C10.3016 3.2305 10.3529 3.26156 10.3991 3.29934L10.5374 3.40715C10.5696 3.43203 10.5825 3.47713 10.5631 3.51314C10.4674 3.68974 10.4837 3.88306 10.5842 3.98555C10.627 4.02661 10.6975 4.04795 10.7781 4.04795C10.8668 4.04795 10.9676 4.02188 11.0561 3.96743C11.0698 3.95922 11.0851 3.95513 11.1 3.95513C11.1246 3.95513 11.1486 3.96535 11.1656 3.98496L11.281 4.11679C11.3182 4.16098 11.358 4.20317 11.3943 4.24799C11.4213 4.28109 11.4213 4.32914 11.3929 4.36075C11.2567 4.51069 11.2186 4.7081 11.3018 4.82408C11.3519 4.89819 11.4661 4.94855 11.597 4.94855C11.6506 4.94855 11.7068 4.94033 11.7628 4.92162C11.7713 4.91867 11.78 4.91722 11.7886 4.91722C11.8184 4.91722 11.8468 4.93361 11.8629 4.96027C11.8934 5.01154 11.9244 5.06276 11.947 5.11817L12.0205 5.27833C12.0378 5.31611 12.0261 5.3618 11.9915 5.38523C11.8269 5.49771 11.7519 5.67577 11.7932 5.81228C11.8304 5.92295 11.9991 6.01668 12.1833 6.01668C12.1954 6.01668 12.2073 6.01609 12.2197 6.0155C12.2214 6.01523 12.2235 6.01523 12.2252 6.01523C12.2647 6.01523 12.2993 6.04306 12.3084 6.08203L12.3488 6.25273C12.3605 6.30899 12.3766 6.36462 12.3887 6.42089C12.3971 6.46271 12.3749 6.50581 12.3348 6.52043C12.1444 6.58986 12.0179 6.74685 12.0369 6.88831C12.0492 6.95829 12.0952 7.03181 12.1707 7.09066C12.2314 7.13726 12.3102 7.17472 12.3989 7.18939C12.439 7.19579 12.4683 7.23126 12.4695 7.27195L12.4745 7.44474C12.4745 7.44769 12.4745 7.45032 12.4741 7.45327L12.4625 7.62489C12.4595 7.66616 12.4282 7.70045 12.3869 7.70513C12.2988 7.7148 12.2191 7.74554 12.1573 7.78741C12.0788 7.84073 12.0322 7.91279 12.0149 7.99186C11.9933 8.11574 12.1119 8.29148 12.2996 8.37113C12.3386 8.38785 12.3582 8.43117 12.3479 8.47217C12.3339 8.52844 12.3154 8.58348 12.3017 8.63942L12.2548 8.80754C12.2439 8.84532 12.21 8.87111 12.1716 8.87111C12.1684 8.87111 12.1649 8.8708 12.1614 8.87048C12.138 8.86757 12.1148 8.86639 12.0923 8.86639C11.9236 8.86639 11.7736 8.94109 11.7288 9.05735C11.7013 9.12297 11.7203 9.21465 11.7578 9.30075C11.7889 9.36955 11.8404 9.43894 11.9113 9.49258C11.9441 9.51745 11.9534 9.56318 11.9347 9.59979L11.855 9.75705C11.8302 9.81154 11.7973 9.861 11.7648 9.91109C11.7487 9.93628 11.7206 9.95095 11.6922 9.95095C11.6819 9.95095 11.6717 9.94918 11.6617 9.94504C11.5964 9.91931 11.5305 9.90732 11.4687 9.90732C11.3537 9.90732 11.2532 9.94978 11.1987 10.0253C11.1211 10.1243 11.1433 10.3349 11.2725 10.4928C11.2989 10.5252 11.2962 10.5724 11.2687 10.6041C11.2303 10.6477 11.1888 10.6884 11.1498 10.7309L11.0297 10.8577C11.0127 10.8755 10.9889 10.8855 10.9656 10.8855C10.9497 10.8855 10.9339 10.8808 10.9202 10.8714C10.8285 10.8073 10.7239 10.7739 10.6308 10.7739C10.5593 10.7739 10.4946 10.7938 10.448 10.8345C10.3572 10.9215 10.3233 11.1227 10.4082 11.3046C10.4258 11.3418 10.4129 11.3863 10.3795 11.4101L10.2357 11.5131C10.1883 11.5489 10.1361 11.5776 10.0843 11.6072C10.0708 11.6148 10.0558 11.6186 10.0409 11.6186C10.0169 11.6186 9.99348 11.6086 9.97709 11.5896C9.88104 11.4789 9.75625 11.4206 9.64613 11.4206C9.60453 11.4206 9.56471 11.4288 9.5296 11.4461C9.41503 11.4982 9.33715 11.695 9.37843 11.895C9.38692 11.9364 9.36235 11.9771 9.3228 11.992C9.26862 12.0125 9.21295 12.0286 9.15882 12.0488L8.99329 12.1053C8.98394 12.1086 8.97458 12.1103 8.96518 12.1103C8.93385 12.1103 8.90397 12.0933 8.88903 12.0646C8.80819 11.9109 8.66674 11.8084 8.53995 11.8084C8.52265 11.8084 8.50598 11.8101 8.48922 11.8142C8.41983 11.8291 8.3548 11.8957 8.30535 11.9765C8.26666 12.0409 8.23887 12.1226 8.23474 12.2114C8.23269 12.2526 8.2005 12.2861 8.15949 12.2917L7.98493 12.3145C7.92635 12.3244 7.86749 12.3273 7.80832 12.3294C7.80714 12.3294 7.80623 12.3294 7.80541 12.3294C7.76554 12.3294 7.72985 12.3027 7.72077 12.2638C7.67563 12.0702 7.53889 11.9296 7.39798 11.9296C7.39594 11.9296 7.39358 11.9296 7.39158 11.9299C7.38745 11.9296 7.38363 11.9293 7.37955 11.9293C7.25593 11.9293 7.10394 12.0629 7.04918 12.2521C7.03864 12.289 7.00404 12.3127 6.96625 12.3127C6.96398 12.3127 6.96189 12.3127 6.95985 12.3124C6.90036 12.3083 6.84151 12.303 6.78293 12.2907L6.61014 12.2609C6.56886 12.2539 6.53811 12.2178 6.53839 12.1762C6.53898 12.0881 6.51791 12.0066 6.48362 11.9416C6.43939 11.8608 6.37699 11.7905 6.29911 11.7706C6.28331 11.7662 6.26633 11.7642 6.24875 11.7642C6.13132 11.7642 5.97751 11.8585 5.88964 12.0066C5.87383 12.033 5.84545 12.048 5.81616 12.048C5.80562 12.048 5.79477 12.0462 5.78451 12.0421L5.6208 11.9785C5.56776 11.9563 5.51299 11.9381 5.45972 11.9156C5.42049 11.8988 5.3976 11.8561 5.40845 11.8148C5.45941 11.6189 5.40173 11.4258 5.27435 11.3614C5.2383 11.3453 5.19611 11.336 5.15015 11.336C5.11323 11.336 5.07341 11.3421 5.03213 11.3556C4.95888 11.3796 4.88304 11.4236 4.82067 11.4885C4.80424 11.5055 4.78258 11.5138 4.76032 11.5138C4.74451 11.5138 4.72811 11.5094 4.71376 11.5005C4.66338 11.4692 4.61211 11.4382 4.56583 11.4004L4.42733 11.2926C4.39511 11.2677 4.38222 11.2226 4.40183 11.1866C4.49733 11.0099 4.48091 10.8167 4.38076 10.7142C4.33769 10.6732 4.26711 10.6518 4.18656 10.6518C4.09783 10.6518 3.99737 10.6779 3.90864 10.7323C3.89516 10.7406 3.87992 10.7446 3.86468 10.7446C3.84038 10.7446 3.81608 10.7344 3.7991 10.7147L3.6837 10.583C3.64649 10.5387 3.60667 10.4966 3.57036 10.4518C3.5437 10.4184 3.54341 10.3706 3.5721 10.339C3.7083 10.189 3.74636 9.99165 3.6629 9.87567C3.61281 9.80155 3.49889 9.75114 3.36769 9.75114C3.31439 9.75114 3.25783 9.75937 3.20221 9.77812C3.19343 9.78107 3.18491 9.78252 3.17642 9.78252C3.14654 9.78252 3.11786 9.76613 3.10204 9.73947C3.07129 9.68826 3.04025 9.63697 3.01767 9.58163L2.94418 9.42141C2.9269 9.38363 2.93889 9.33795 2.97318 9.31451C3.13778 9.20207 3.21275 9.02397 3.17173 8.88746C3.13425 8.77675 2.96555 8.68307 2.78134 8.68307C2.76934 8.68307 2.75732 8.68366 2.74532 8.68425C2.74327 8.68452 2.74151 8.68452 2.73945 8.68452C2.69991 8.68452 2.66566 8.65668 2.65628 8.61776L2.61585 8.44702C2.60443 8.39075 2.58803 8.33512 2.57631 8.2789C2.56753 8.23699 2.58979 8.19394 2.63021 8.17932C2.82057 8.10988 2.94682 7.95289 2.92807 7.81144C2.91548 7.74146 2.86978 7.66794 2.79421 7.60908C2.73329 7.56249 2.65452 7.52502 2.56607 7.51036C2.52565 7.50395 2.49666 7.46849 2.49549 7.42775L2.49051 7.25496C2.4902 7.25206 2.49051 7.24942 2.49051 7.24647L2.50251 7.07486C2.50516 7.03358 2.53677 6.99929 2.57778 6.99462C2.66594 6.98494 2.74561 6.9542 2.80769 6.91201C2.8859 6.85902 2.93275 6.78695 2.94975 6.70789C2.97142 6.58401 2.85309 6.40826 2.66536 6.32861C2.6264 6.3119 2.6065 6.26858 2.61673 6.22757C2.63078 6.17131 2.64953 6.11627 2.6633 6.06032L2.71018 5.89221C2.7207 5.85442 2.75497 5.82867 2.79306 5.82867C2.79655 5.82867 2.79978 5.82895 2.8033 5.82927C2.82675 5.83217 2.84986 5.83335 2.87271 5.83335C3.0414 5.83335 3.19137 5.75865 3.23618 5.6424C3.26341 5.57678 3.24467 5.48509 3.20717 5.39899C3.17585 5.33015 3.12428 5.26076 3.05343 5.20717C3.02063 5.18229 3.01125 5.1366 3.02998 5.1L3.10964 4.94269C3.13455 4.88825 3.16735 4.8387 3.19987 4.78866C3.21627 4.76345 3.24409 4.74883 3.27279 4.74883C3.28274 4.74883 3.29298 4.75056 3.30296 4.75469C3.36854 4.78044 3.43446 4.79247 3.49596 4.79247C3.61135 4.79247 3.71151 4.75001 3.766 4.67445C3.84359 4.57541 3.82133 4.36483 3.69249 4.20698C3.66583 4.17447 3.66847 4.12728 3.69627 4.0954C3.73438 4.05204 3.77624 4.01135 3.81519 3.96857L3.93499 3.84205C3.95196 3.82421 3.97569 3.81422 3.99913 3.81422C4.01493 3.81422 4.03074 3.81862 4.0448 3.82829C4.1365 3.89242 4.24105 3.92584 4.33388 3.92584C4.40563 3.92584 4.47008 3.9059 4.51664 3.86521C4.60745 3.7782 4.6414 3.57667 4.55648 3.39511C4.53891 3.35792 4.55178 3.31342 4.58517 3.28939L4.72897 3.18658C4.77643 3.15084 4.82856 3.12214 4.88041 3.09258C4.8939 3.08495 4.90911 3.08118 4.92373 3.08118C4.94775 3.08118 4.97119 3.09113 4.9879 3.11015C5.08367 3.22055 5.20842 3.27918 5.31854 3.27918C5.36045 3.27918 5.39996 3.27064 5.43538 3.25366C5.54964 3.20152 5.62752 3.00471 5.58656 2.80467C5.57802 2.76339 5.60264 2.7227 5.64187 2.70772C5.69609 2.68724 5.75204 2.67084 5.80617 2.65095L5.97138 2.5941C5.98073 2.59087 5.99013 2.58942 5.9998 2.58942C6.03082 2.58942 6.0607 2.6064 6.07591 2.6351C6.15647 2.78887 6.2982 2.89136 6.42477 2.89136C6.44202 2.89136 6.45901 2.88932 6.4754 2.88555C6.54483 2.87056 6.60986 2.80413 6.65936 2.72325C6.69828 2.65881 6.72612 2.57711 6.73025 2.48838C6.73198 2.44705 6.76422 2.41368 6.80518 2.40814L6.97974 2.38529C7.03832 2.37531 7.09749 2.37208 7.15666 2.37035C7.15753 2.37035 7.15844 2.37035 7.1593 2.37035Z" fill="white"/>
<path d="M5.83264 11.0324C5.79899 11.0743 5.74096 11.0837 5.69586 11.0561C5.63351 11.0184 5.53097 10.9735 5.39042 10.9677C5.25333 10.9621 4.90743 10.7711 4.84682 10.5236C4.81285 10.3849 4.74899 10.292 4.69978 10.2372C4.66434 10.198 4.66143 10.1382 4.6951 10.0964L4.93585 9.79589L5.00497 9.85324C5.01287 9.86 5.01433 9.87172 5.00847 9.88112C4.82983 10.1614 4.87577 10.5322 5.12681 10.7401C5.37957 10.9495 5.74945 10.9182 5.98286 10.6789C5.98786 10.6739 5.99517 10.6733 6.00048 10.6777L6.07046 10.7354L5.83264 11.0324ZM5.08199 9.92913L5.14616 9.98124C5.02432 10.1716 5.06678 10.4314 5.25242 10.5822C5.43842 10.733 5.70172 10.7219 5.86398 10.5644L5.9281 10.6168C5.73773 10.8084 5.42348 10.8236 5.2021 10.6441C4.98095 10.4643 4.93236 10.1538 5.08199 9.92913ZM5.83033 10.4051C5.71725 10.5989 5.44692 10.6221 5.29052 10.4511C5.1927 10.3444 5.17367 10.1833 5.24393 10.0624C5.357 9.86849 5.62734 9.84538 5.78373 10.0164C5.88128 10.1227 5.90058 10.2841 5.83033 10.4051ZM5.8722 9.82308C6.09331 10.0029 6.14194 10.3134 5.99226 10.5383L5.9281 10.4859C6.04994 10.2955 6.00748 10.0357 5.82183 9.88494C5.63615 9.73403 5.37253 9.74521 5.21028 9.90273L5.14584 9.85065C5.33652 9.65911 5.65104 9.64357 5.8722 9.82308ZM6.33935 10.0184C6.29039 9.94555 6.37063 9.76541 6.48312 9.57708L6.35483 9.53844C6.31005 9.5967 6.27168 9.64679 6.24589 9.68163C6.11088 9.86291 6.20488 10.0357 6.31823 10.157C6.39466 10.2387 6.39584 10.3011 6.38853 10.333C6.38562 10.3459 6.37913 10.3573 6.37095 10.3673L6.13023 10.6654L6.06429 10.6112C6.05729 10.6054 6.05552 10.5954 6.06052 10.5878C6.22509 10.3295 6.1686 9.97684 5.91874 9.77159C5.66952 9.56682 5.31572 9.58235 5.09811 9.79674C5.09166 9.8032 5.08113 9.80378 5.07377 9.79764L5.00411 9.74021L5.24161 9.4459C5.2501 9.43531 5.26064 9.42623 5.27294 9.42069C5.30283 9.4072 5.36345 9.39699 5.45686 9.45498C5.59718 9.54226 5.78432 9.60051 5.93309 9.43036C5.93691 9.42596 5.94131 9.42069 5.94572 9.41574L5.75472 9.35829C5.6871 9.39957 5.62911 9.41892 5.58987 9.40284C5.39188 9.32024 5.30691 9.17029 5.1675 9.33959C5.02781 9.50884 4.60813 10.0319 4.55218 10.1013C4.52348 10.1371 4.515 10.1673 4.53197 10.2065L4.51236 10.2311C4.49098 10.2574 4.48892 10.2934 4.50354 10.3228C4.50882 10.3336 4.51645 10.3435 4.5264 10.3518L4.63974 10.4449C4.6579 10.4595 4.67986 10.4651 4.70124 10.4633C4.70945 10.4625 4.71767 10.4607 4.72526 10.4581C4.7853 10.5802 4.80904 10.7337 4.97686 10.8857C4.98181 10.8907 4.98681 10.8957 4.99207 10.9C4.99444 10.9021 4.99707 10.9038 4.99939 10.9059C5.00202 10.9079 5.00411 10.91 5.00642 10.9121C5.01169 10.9165 5.01755 10.9203 5.02341 10.924C5.20528 11.059 5.35905 11.0514 5.48969 11.0863C5.4891 11.0898 5.48938 11.0936 5.48938 11.0971C5.48851 11.1235 5.49787 11.1498 5.51985 11.168L5.63319 11.2609C5.64314 11.269 5.65427 11.2746 5.66598 11.2776C5.69732 11.2863 5.73192 11.277 5.75326 11.2506L5.7732 11.226C5.81448 11.2347 5.84232 11.2204 5.87102 11.1847C5.92696 11.1153 6.35015 10.5951 6.48602 10.4229C6.62226 10.2507 6.45941 10.1974 6.33935 10.0184Z" fill="white"/>
<path d="M6.87285 4.60184C6.87285 4.60184 6.82953 4.61791 6.74665 4.6566C6.73725 4.66096 6.72553 4.65833 6.71999 4.64984L6.30879 4.03569C6.37323 4.0064 6.40661 3.99437 6.40661 3.99437C6.42009 3.9856 6.43444 3.98238 6.4482 3.98238C6.44997 3.97824 6.44966 3.97388 6.45052 3.9698L6.45374 3.97443L6.52754 4.08432L6.87348 4.60152C6.87348 4.60152 6.87317 4.60152 6.87285 4.60184ZM6.62713 4.71514C6.51673 4.77108 6.37055 4.85105 6.19163 4.96086C6.18314 4.96585 6.17228 4.9644 6.16556 4.95736C6.06071 4.84547 5.88937 4.82031 5.75554 4.90641C5.61758 4.99546 5.57044 5.16707 5.63488 5.31085C5.63897 5.31997 5.63634 5.33046 5.62843 5.33605C5.60732 5.35131 5.58743 5.36593 5.56749 5.38055C5.55814 5.38759 5.54465 5.38496 5.5382 5.37529L5.13758 4.77635C5.13377 4.77081 5.12909 4.76582 5.12409 4.762C5.22277 4.68821 5.33644 4.6071 5.46822 4.51891C5.7154 4.35343 5.91721 4.236 6.07006 4.1543L6.42445 4.68408C6.428 4.68966 6.4403 4.68762 6.45197 4.67972L6.48712 4.66069C6.49888 4.65279 6.50529 4.64225 6.50179 4.63667L6.15062 4.11212C6.17787 4.09836 6.20303 4.08578 6.22587 4.07465L6.63444 4.6853C6.64148 4.69556 6.63825 4.70928 6.62713 4.71514ZM6.06775 5.3756C5.98019 5.43591 5.86448 5.42801 5.78365 5.36561C5.79419 5.35803 5.80531 5.3504 5.81589 5.34309C5.88233 5.38964 5.97343 5.39404 6.04372 5.34631C6.11284 5.29945 6.14272 5.2148 6.12546 5.1366C6.13627 5.12956 6.14772 5.12225 6.15852 5.11549C6.18459 5.21189 6.1518 5.31734 6.06775 5.3756ZM5.79273 5.13397C5.79301 5.13338 5.79301 5.13283 5.79332 5.1322C5.798 5.11903 5.80477 5.10672 5.81326 5.09501C5.81471 5.09296 5.81617 5.09092 5.81794 5.08887C5.8267 5.07775 5.83696 5.06721 5.84923 5.05813C5.85626 5.05314 5.86389 5.04905 5.87179 5.04555C5.87475 5.04437 5.87765 5.04346 5.88029 5.04228C5.88555 5.04083 5.89082 5.0391 5.89614 5.03788C5.8999 5.03706 5.90372 5.03642 5.90785 5.03583C5.91194 5.03529 5.91603 5.0347 5.92043 5.0347C5.92543 5.03438 5.9301 5.03406 5.93478 5.03438C5.93741 5.03438 5.94032 5.0347 5.94295 5.03497C5.97225 5.03761 6.00067 5.04846 6.02351 5.06662C6.03378 5.0748 6.04341 5.08361 6.05076 5.09473C6.06629 5.1173 6.07388 5.14278 6.07596 5.16825C6.07801 5.19314 6.07388 5.21775 6.0642 5.24028C6.06334 5.24205 6.06248 5.24355 6.06157 5.24527C6.0578 5.25376 6.05253 5.26198 6.04667 5.26957C6.0449 5.27193 6.04313 5.27424 6.04136 5.27661C6.03378 5.28537 6.02529 5.29359 6.0153 5.30063C6.00476 5.30767 5.99363 5.31294 5.98224 5.31702C5.9796 5.31789 5.97665 5.31879 5.97402 5.31966C5.96375 5.32261 5.95322 5.32461 5.94268 5.32551C5.9415 5.32551 5.94032 5.32583 5.93914 5.32583C5.88969 5.32815 5.83987 5.30649 5.80972 5.26316C5.80063 5.25022 5.79478 5.23619 5.79069 5.22184C5.7822 5.19282 5.78306 5.1624 5.79273 5.13397ZM5.71249 5.27629C5.6674 5.17498 5.70046 5.05168 5.798 4.98166C5.88878 4.91663 6.02674 4.93511 6.10348 5.01535C6.09263 5.02239 6.08119 5.0297 6.07006 5.03674C6.00508 4.97317 5.90286 4.96027 5.8232 5.01186C5.7406 5.06517 5.70986 5.16676 5.74469 5.25376C5.73415 5.26135 5.72303 5.26898 5.71249 5.27629ZM5.29661 5.59058C5.24239 5.63509 5.19643 5.67432 5.15838 5.70802C5.14898 5.71624 5.13463 5.71415 5.12791 5.70361L4.71992 5.09414C4.7612 5.0555 4.81715 5.006 4.88918 4.94651L5.30129 5.56274C5.3071 5.57155 5.30479 5.58386 5.29661 5.59058ZM5.00897 5.8492C5.00897 5.8492 5.0087 5.8492 5.0087 5.84947L4.66252 5.33224L4.59662 5.23356C4.60568 5.21421 4.61741 5.19196 4.62561 5.18642C4.62561 5.18642 4.63469 5.17643 4.65342 5.15767L5.07341 5.78535C5.03005 5.82663 5.00897 5.8492 5.00897 5.8492ZM4.53247 5.13778L4.52515 5.12698L4.50085 5.09065C4.47301 5.04905 4.4909 4.97407 4.53569 4.94419C4.53569 4.94419 4.74511 4.73185 5.03036 4.51101C5.31532 4.29045 5.42136 4.22047 5.66794 4.08605C5.91457 3.95191 6.15294 3.85 6.23409 3.82189C6.31551 3.79378 6.33808 3.80137 6.36587 3.84269L6.38349 3.86962L6.39721 3.88983C6.38022 3.88688 6.3612 3.8901 6.34421 3.90123C6.34421 3.90123 6.00771 4.02311 5.40583 4.42578C4.80395 4.82849 4.56321 5.09328 4.56321 5.09328C4.54624 5.10468 4.53599 5.12107 4.53247 5.13778ZM5.6659 3.97856L5.62902 3.99586C5.39529 4.12529 5.17241 4.27378 4.96302 4.43985L4.89654 4.49957C4.87165 4.47586 4.87397 4.46651 4.90062 4.44131C5.01865 4.33 5.12205 4.24744 5.23626 4.17247C5.34902 4.09541 5.46472 4.0316 5.61263 3.9648C5.64455 3.95045 5.6545 3.95131 5.6659 3.97856ZM4.76705 4.4577C4.73573 4.42228 4.73631 4.42228 4.76764 4.3924C4.8924 4.27465 5.02741 4.17043 5.17064 4.07815C5.17123 4.07783 5.17182 4.07756 5.17241 4.07724C5.173 4.07697 5.17327 4.07638 5.17386 4.07611C5.31387 3.97856 5.46146 3.89364 5.61817 3.82334C5.65772 3.80545 5.658 3.80518 5.6788 3.84791C5.53175 3.93315 5.38298 4.01049 5.24448 4.10331C5.23185 4.1118 5.21955 4.12034 5.20697 4.1291C5.19439 4.13728 5.18149 4.14522 5.16891 4.15371C5.03036 4.24626 4.90208 4.35461 4.76705 4.4577ZM4.69413 4.36869C4.69588 4.37015 4.69326 4.36896 4.69181 4.36692C4.62561 4.28114 4.64552 4.27964 4.7003 4.20526C4.80952 4.05708 5.29688 3.74574 5.45151 3.69769C5.53911 3.67044 5.55314 3.6605 5.60704 3.7545C5.60823 3.75654 5.6085 3.7595 5.60795 3.75713C5.46 3.84323 5.31064 3.9203 5.17209 4.01312C5.15951 4.02161 5.14721 4.0301 5.13495 4.03891C5.12205 4.04709 5.10942 4.05503 5.09685 4.06348C4.95802 4.15635 4.83003 4.2647 4.69413 4.36869ZM4.38428 4.54702C4.33126 4.58335 4.25862 4.57195 4.22348 4.52155C4.18862 4.47178 4.20386 4.40148 4.25775 4.36283C4.30696 4.32796 4.38309 4.33967 4.41561 4.38772C4.45047 4.43926 4.43642 4.51101 4.38428 4.54702ZM6.40425 3.71C6.37495 3.66636 6.31288 3.66023 6.24172 3.68248C6.17056 3.70505 5.77193 3.92439 5.77193 3.92439C5.7614 3.90972 5.75845 3.90563 5.74882 3.8822C5.74087 3.86376 5.77866 3.84473 5.77193 3.82539C5.75145 3.76799 5.67589 3.68157 5.64278 3.63266C5.61349 3.58875 5.57539 3.58961 5.52798 3.59551C5.38357 3.61304 5.17273 3.73956 5.01806 3.84591C4.8605 3.94841 4.68184 4.08837 4.59161 4.22192C4.56497 4.26152 4.55298 4.2984 4.58227 4.34231C4.61507 4.39153 4.66601 4.4943 4.71141 4.53503C4.72634 4.54852 4.75857 4.52128 4.77263 4.53531C4.79196 4.55465 4.79343 4.5582 4.80542 4.57663C4.80542 4.57663 4.71377 4.64866 4.6168 4.72803L4.49029 4.53912C4.52222 4.47909 4.52311 4.40557 4.48472 4.34699C4.42821 4.26061 4.30959 4.23836 4.21851 4.29694C4.12537 4.35725 4.09723 4.47614 4.15494 4.56405C4.1971 4.62786 4.27446 4.65628 4.34826 4.64311L4.48091 4.84138C4.4449 4.87213 4.41589 4.89851 4.40184 4.91404C4.33976 4.98139 4.33419 5.03175 4.36348 5.07566L5.05584 6.10986L5.16274 6.07939L5.07196 5.94407C5.07223 5.94407 5.07223 5.94379 5.07251 5.94379C5.07251 5.94379 5.0933 5.92122 5.13694 5.88022L5.25324 6.05392L5.34493 6.02785L5.2146 5.83335C5.20874 5.82459 5.2096 5.81346 5.2175 5.80642C5.2556 5.77246 5.30188 5.7329 5.35665 5.68808C5.36632 5.68018 5.38094 5.68195 5.38766 5.6919L5.56953 5.96432L5.87443 5.87758L5.62494 5.50448C5.61844 5.4954 5.62053 5.48309 5.62961 5.47633C5.65155 5.46025 5.6738 5.44381 5.69723 5.42687C5.70486 5.42129 5.7154 5.42183 5.72271 5.42801C5.83138 5.51883 5.99191 5.53259 6.11402 5.44999C6.23409 5.36856 6.28154 5.21716 6.23995 5.08329C6.23731 5.07421 6.24085 5.06426 6.24903 5.05927C6.43326 4.94624 6.5829 4.86454 6.69506 4.80741C6.70446 4.80274 6.71559 4.80596 6.72145 4.81473L7.18392 5.50621L7.27556 5.48014L6.80668 4.77958C6.79964 4.76877 6.80405 4.7541 6.81577 4.74856C6.8951 4.71191 6.93642 4.69638 6.93642 4.69638C6.93642 4.69638 6.9367 4.69638 6.9367 4.69611L7.43168 5.43564L7.50725 5.41425L7.55557 5.43069L6.40425 3.71Z" fill="white"/>
<path d="M6.77016 5.06616L6.73737 5.08868C6.72565 5.09658 6.7242 5.11475 6.73414 5.12883L7.01706 5.53857L7.10843 5.51133L6.80853 5.07728C6.79886 5.06293 6.78155 5.05826 6.77016 5.06616Z" fill="white"/>
<path d="M9.94499 7.24169L9.98294 7.27588C9.95699 7.18214 9.9622 7.17367 9.93652 7.07961C9.93942 7.15293 9.94209 7.16869 9.94499 7.24169Z" fill="white"/>
<path d="M6.48775 7.13852L6.48438 7.1419C6.49204 7.14985 6.50127 7.15632 6.48775 7.13852Z" fill="white"/>
<path d="M4.61598 7.54015C4.61364 7.54015 4.61128 7.54015 4.60924 7.54042C4.60688 7.54015 4.60484 7.53983 4.6025 7.54015C4.53222 7.54333 4.4839 7.54601 4.41184 7.5495C4.3937 7.55041 4.37846 7.56358 4.37698 7.57997C4.372 7.65086 4.35765 7.70095 4.33422 7.73051C4.30846 7.7633 4.26129 7.7806 4.19307 7.78292C4.12802 7.78237 4.08117 7.76126 4.05336 7.71966C4.02583 7.67779 4.01118 7.60223 4.00942 7.4921C4.00942 7.48506 4.01177 7.47834 4.01588 7.47276L4.09084 7.3729C4.10343 7.35619 4.09641 7.33307 4.0762 7.32431L4.02962 7.30405C4.01703 7.29851 4.00885 7.28707 4.00885 7.27422C4.00885 7.26573 4.00885 7.2566 4.00885 7.24697C4.0103 7.14239 4.02583 7.06569 4.05511 7.01587C4.0841 6.96637 4.13391 6.93622 4.20449 6.92655C4.21882 6.9245 4.2317 6.9236 4.24432 6.9236C4.28531 6.9245 4.31577 6.93622 4.33452 6.9582C4.35708 6.98454 4.37083 7.03286 4.37612 7.10256C4.37757 7.12159 4.3963 7.13567 4.41711 7.13362C4.41917 7.13335 4.42121 7.13335 4.42327 7.13303C4.42559 7.13335 4.42795 7.1339 4.43031 7.13362C4.50088 7.12659 4.54948 7.12191 4.62067 7.11519C4.64087 7.11342 4.65581 7.09702 4.65377 7.07858C4.64321 6.97368 4.60924 6.86506 4.52871 6.78654C4.47248 6.73178 4.36938 6.71043 4.28063 6.71189C4.24811 6.7113 4.21707 6.71393 4.19042 6.7192C4.06155 6.74495 3.93211 6.8082 3.85243 6.90838C3.77044 7.01178 3.73207 7.22822 3.73118 7.27068C3.7309 7.27949 3.72709 7.28771 3.72006 7.29384L3.64009 7.36468C3.62518 7.37757 3.62518 7.39928 3.64009 7.41213L3.71978 7.4827C3.7268 7.48888 3.7309 7.49737 3.7309 7.50618C3.7309 7.63006 3.76106 7.7604 3.8495 7.85848C3.93121 7.94899 4.06654 7.98704 4.19099 7.99C4.19511 7.99031 4.19981 7.99031 4.20391 7.99H4.20449C4.30963 7.99263 4.45988 7.95253 4.53222 7.87724C4.61158 7.79436 4.64642 7.68392 4.65492 7.57589C4.65669 7.55563 4.63825 7.53897 4.61598 7.54015Z" fill="white"/>
<path d="M8.26502 6.45956C7.9807 6.44875 7.69688 6.4423 7.41219 6.44026C7.41219 6.44026 7.41187 6.44053 7.4116 6.44053C7.4087 6.44053 7.40574 6.44053 7.40311 6.44026C7.38758 6.44026 7.375 6.45284 7.375 6.46837C7.375 6.54657 7.375 6.59634 7.375 6.67486C7.375 6.69007 7.38726 6.70265 7.40279 6.70265C7.50329 6.70297 7.56505 6.70356 7.6655 6.70469C7.68076 6.70501 7.69306 6.71759 7.69306 6.73285C7.69306 6.86168 7.69279 6.93665 7.69279 7.06966C7.69279 7.07752 7.68925 7.08547 7.68339 7.09073L7.59261 7.17302C7.58031 7.18415 7.58031 7.20317 7.59261 7.21435L7.68312 7.29663C7.68898 7.3019 7.69247 7.30921 7.69247 7.31711C7.69215 7.51306 7.69188 7.77254 7.69156 7.97172C7.69156 7.98725 7.70419 7.99951 7.71945 7.99951C7.79851 7.99951 7.84887 7.99951 7.92793 7.99951H7.93674C7.95227 7.99951 7.96485 7.98725 7.96485 7.97199C7.96544 7.76755 7.96571 7.52741 7.96599 7.32474C7.96599 7.31652 7.9698 7.30862 7.9763 7.30335L8.06853 7.2272C8.08115 7.21666 8.08201 7.19732 8.07025 7.18592L7.97511 7.09246C7.96953 7.08751 7.96662 7.07988 7.96662 7.07225C7.96689 6.93375 7.96721 6.87135 7.96748 6.73866C7.96748 6.72345 7.97979 6.71114 7.995 6.71114C8.09196 6.7135 8.15404 6.71523 8.25308 6.71877C8.25362 6.71877 8.25421 6.7185 8.2548 6.7185C8.25712 6.7185 8.25975 6.7185 8.26243 6.71877C8.27792 6.71904 8.29113 6.70646 8.29113 6.69093C8.29141 6.61419 8.29141 6.56501 8.29168 6.48767C8.29168 6.47277 8.27996 6.46015 8.26502 6.45956Z" fill="white"/>
<path d="M5.9455 7.23056L5.85354 7.16903C5.84591 7.16408 5.84123 7.15527 5.84123 7.14619C5.84037 6.95818 5.83951 6.77013 5.83833 6.58208C5.83833 6.56601 5.82425 6.55343 5.80818 6.55456C5.80554 6.55488 5.80291 6.55515 5.80027 6.55515C5.79878 6.55515 5.79705 6.55456 5.79528 6.55456C5.7194 6.56101 5.67053 6.5651 5.59347 6.57246C5.57912 6.57359 5.56799 6.58562 5.56831 6.60025C5.56917 6.80088 5.57035 7.0015 5.57149 7.20213C5.57149 7.21121 5.5674 7.21998 5.55982 7.22529L5.51995 7.2534C5.50619 7.26276 5.50414 7.28237 5.51554 7.29468L5.56509 7.34945C5.56976 7.35444 5.5724 7.36116 5.5724 7.36793C5.57267 7.43264 5.57326 7.49708 5.57358 7.56147C5.57358 7.63999 5.56186 7.6968 5.53929 7.73136C5.51736 7.76505 5.47663 7.7829 5.41745 7.7844C5.36123 7.78349 5.32168 7.76769 5.29943 7.73608C5.276 7.70239 5.26396 7.64617 5.26369 7.56706C5.2631 7.50644 5.26283 7.44581 5.26251 7.38491C5.26251 7.37756 5.26514 7.37084 5.27014 7.36557L5.33163 7.30086C5.34248 7.28969 5.34189 7.27157 5.33017 7.26103L5.27046 7.20681C5.26487 7.20181 5.26133 7.19423 5.26133 7.1866C5.26047 7.00355 5.25929 6.82081 5.25815 6.63776C5.25815 6.62136 5.2438 6.60847 5.22736 6.61051C5.22504 6.61051 5.223 6.61083 5.22096 6.6111C5.21887 6.61083 5.21683 6.61024 5.21451 6.61051C5.13804 6.61873 5.08913 6.62427 5.01152 6.63335C4.99717 6.63512 4.98663 6.64716 4.98691 6.66119C4.98782 6.83017 4.98868 6.99919 4.98986 7.16816C4.98986 7.17607 4.98636 7.18365 4.9805 7.18896L4.88618 7.27475C4.87301 7.28651 4.87415 7.30726 4.88823 7.31784L4.97669 7.38342C4.97814 7.39658 5.00244 7.39658 5.00421 7.45521C5.00244 7.60748 4.99072 7.78204 5.10203 7.9056C5.16969 7.98121 5.31641 8.02099 5.41514 8.02099C5.41745 8.02099 5.4195 8.02099 5.42186 8.02099C5.4239 8.02099 5.42595 8.02099 5.42799 8.02099C5.52612 8.02131 5.6714 7.97917 5.73611 7.90211C5.81726 7.8052 5.84505 7.676 5.84332 7.55534C5.84332 7.51143 5.84301 7.43087 5.84273 7.38078C5.84273 7.37261 5.84623 7.36498 5.85209 7.35971L5.94845 7.27447C5.96221 7.26248 5.96076 7.24051 5.9455 7.23056Z" fill="white"/>
<path d="M6.34927 7.22588L6.81292 7.46488C6.81701 7.46692 6.82055 7.47014 6.82287 7.47423C6.8399 7.50443 6.84807 7.54426 6.84835 7.59375C6.84866 7.70946 6.80266 7.76745 6.7107 7.768C6.64454 7.76832 6.59649 7.74838 6.5672 7.70856C6.54055 7.67223 6.52561 7.61601 6.52297 7.53958C6.5227 7.52668 6.51212 7.51615 6.49927 7.51642C6.41607 7.5176 6.36512 7.51851 6.28193 7.51996C6.26903 7.52023 6.25822 7.53109 6.25881 7.54426C6.26172 7.6368 6.28165 7.71732 6.31794 7.78648C6.35722 7.86173 6.41167 7.91945 6.4811 7.96013C6.55049 8.00087 6.62987 8.01903 6.71129 8.02135C6.80943 8.0243 6.94235 7.9783 7.00565 7.90714C7.08385 7.81986 7.11196 7.69888 7.11373 7.58994C7.11459 7.51937 7.12131 7.38318 7.02908 7.29708C7.02145 7.29004 7.01882 7.27892 7.02291 7.26956L7.04607 7.22034C7.05193 7.20744 7.04516 7.19222 7.03172 7.18814L6.84485 7.12865C6.82727 7.12279 6.7983 7.11257 6.78132 7.10494C6.69022 7.06421 6.62842 7.02497 6.59531 6.98692C6.56661 6.95354 6.55226 6.91576 6.55226 6.87357C6.55199 6.8194 6.56457 6.77576 6.59032 6.74292C6.61579 6.70982 6.65185 6.69256 6.69781 6.69111C6.74703 6.68966 6.78481 6.70718 6.81088 6.74442C6.83404 6.77748 6.84721 6.82466 6.8498 6.88529C6.85043 6.89814 6.86092 6.90872 6.87387 6.9084C6.95643 6.90663 7.0071 6.90577 7.08971 6.90463C7.10288 6.90432 7.11341 6.89346 7.11314 6.88029C7.11019 6.79655 7.09352 6.72158 7.06246 6.65505C7.02849 6.58244 6.9799 6.52681 6.91692 6.48844C6.85393 6.45006 6.78014 6.43426 6.70162 6.4354C6.5994 6.43689 6.4688 6.49402 6.40404 6.56604C6.32588 6.65274 6.28692 6.76813 6.2881 6.88116C6.28897 6.97929 6.36775 7.14214 6.37184 7.15767L6.37071 7.15939L6.34287 7.18927C6.33202 7.2004 6.33524 7.21888 6.34927 7.22588Z" fill="white"/>
<path d="M9.20946 7.18951L9.13684 7.25481C9.12513 7.26566 9.12395 7.28383 9.13453 7.29586L9.21096 7.3831C9.21563 7.38837 9.21827 7.39513 9.21827 7.40244C9.21827 7.40976 9.21827 7.41766 9.218 7.42588C9.21677 7.54713 9.19978 7.63618 9.16673 7.69358C9.13389 7.75066 9.08385 7.77909 9.01678 7.77823C8.94739 7.77732 8.89612 7.74657 8.86328 7.68568C8.83022 7.62473 8.8141 7.53041 8.81469 7.40276C8.81497 7.39804 8.81497 7.38396 8.81497 7.37347C8.81497 7.36643 8.8176 7.35967 8.82232 7.3544L8.89199 7.27652C8.90225 7.26507 8.90198 7.24777 8.89117 7.23665L8.80943 7.1535C8.80943 7.13888 8.81615 7.16054 8.81615 7.14324C8.81787 7.01699 8.83518 6.9239 8.86828 6.86414C8.90139 6.80469 8.95202 6.77744 9.02027 6.78239C9.08912 6.78739 9.14039 6.82313 9.17199 6.88784C9.21418 6.97453 9.21563 7.07326 9.21913 7.16667C9.21563 7.17457 9.21273 7.18134 9.20946 7.18951ZM9.47748 7.18601C9.4807 7.02962 9.44642 6.86382 9.35591 6.73058C9.28298 6.62368 9.15941 6.55134 9.02145 6.53844C8.88758 6.52614 8.75816 6.58122 8.68259 6.68194C8.58391 6.81346 8.55989 6.99356 8.55839 7.14968C8.55839 7.16285 8.55839 7.13824 8.55839 7.14968L8.46203 7.22057C8.44859 7.23052 8.44627 7.24959 8.45676 7.26244L8.55753 7.38546V7.40213C8.55839 7.5553 8.58328 7.72986 8.67964 7.85901C8.75493 7.9601 8.88086 8.021 9.0156 8.021C9.14883 8.02068 9.27685 7.96446 9.35241 7.86374C9.44582 7.73954 9.47893 7.5776 9.47598 7.42792C9.4763 7.41443 9.4763 7.40185 9.4763 7.39014C9.4763 7.38133 9.48038 7.37284 9.48742 7.3673L9.54628 7.32134C9.55944 7.31108 9.56122 7.29173 9.55009 7.27915L9.48479 7.20595C9.48243 7.19918 9.48011 7.19273 9.47748 7.18601Z" fill="white"/>
<path d="M11.1196 7.51754L11.0411 7.44374C11.0364 7.43934 11.0337 7.43321 11.0337 7.42703C11.034 7.26977 11.0384 7.1087 11.0387 6.95139C11.0387 6.93999 11.0299 6.93032 11.0179 6.928C10.9216 6.91157 10.8252 6.89544 10.7286 6.88023C10.7157 6.87819 10.7034 6.8855 10.6999 6.89722C10.6284 7.13004 10.588 7.36346 10.5191 7.59719C10.5124 7.62035 10.4983 7.62153 10.4919 7.59837C10.421 7.34034 10.3226 7.08172 10.2547 6.82315C10.2523 6.81375 10.2225 6.80553 10.2125 6.80408C10.1161 6.79091 10.0198 6.77833 9.92311 6.76629C9.90817 6.76452 9.89472 6.77569 9.89472 6.78973C9.89354 6.96983 9.89241 7.0879 9.89118 7.27154C9.89118 7.27885 9.88741 7.28585 9.88128 7.29025L9.78083 7.36087C9.76789 7.36963 9.76703 7.38721 9.77874 7.39715L9.88151 7.48384C9.88682 7.48825 9.89005 7.49442 9.88973 7.50114C9.88914 7.63293 9.88828 7.8435 9.88769 7.9806C9.88769 7.99377 9.89881 8.0043 9.91289 8.0043C9.99136 8.0043 10.0406 8.0043 10.1194 8.00462C10.1331 8.00462 10.1445 7.99404 10.1445 7.98119C10.1451 7.87983 10.1457 7.77879 10.1463 7.67748C10.1445 7.6382 10.1413 7.54919 10.1413 7.50232C10.1413 7.4575 10.1636 7.47535 10.1694 7.49179C10.2248 7.65109 10.2986 7.83151 10.37 7.98818C10.3745 7.99786 10.3832 8.00517 10.3943 8.00517C10.4497 8.00517 10.5279 8.00517 10.5836 8.00548C10.5947 8.00548 10.6046 7.99845 10.6079 7.9885C10.667 7.80781 10.6961 7.71258 10.7397 7.57698C10.7403 7.57757 10.7408 7.57816 10.7414 7.57848C10.7429 7.58107 10.7446 7.58343 10.747 7.58547L10.7772 7.61099C10.7827 7.61567 10.7859 7.62266 10.7854 7.6297C10.7842 7.65432 10.7827 7.67893 10.7816 7.70382C10.7813 7.79668 10.7813 7.88923 10.781 7.98232C10.781 7.99522 10.7921 8.00607 10.8062 8.00607C10.885 8.00607 10.9345 8.00635 11.0135 8.00635C11.0273 8.00635 11.0387 7.99581 11.0387 7.98292V7.6634C11.0387 7.65813 11.0405 7.65373 11.0434 7.64964L11.1222 7.54801C11.1295 7.53861 11.1283 7.52576 11.1196 7.51754Z" fill="white"/>
<path d="M5.07268 8.64046H4.9898V8.54705H5.07268C5.10932 8.54705 5.13394 8.55845 5.13394 8.5936C5.13394 8.62875 5.10932 8.64046 5.07268 8.64046ZM4.99071 8.37808H5.06536C5.09761 8.37808 5.11604 8.39415 5.11604 8.41963C5.11604 8.4451 5.09761 8.46123 5.06536 8.46123L4.99071 8.46063V8.37808ZM5.16936 8.49578C5.21327 8.48057 5.23761 8.44774 5.23761 8.39856C5.23761 8.32122 5.17699 8.28521 5.07649 8.28521H4.86914V8.72806L5.06745 8.73828C5.15473 8.73828 5.25577 8.70813 5.25577 8.6065C5.25577 8.54442 5.21854 8.50986 5.16936 8.49578Z" fill="white"/>
<path d="M5.84046 8.51599H5.76312V8.40001H5.84046C5.87534 8.40001 5.89904 8.41936 5.89904 8.458C5.89904 8.49669 5.87534 8.51599 5.84046 8.51599ZM6.06248 8.78955L5.93564 8.60504C5.98632 8.58279 6.02383 8.53765 6.02383 8.4545C6.02383 8.32181 5.92865 8.28521 5.83519 8.28521H5.6416V8.76789L5.76312 8.77434V8.62348H5.81557L5.92161 8.78165L6.06248 8.78955Z" fill="white"/>
<path d="M6.8077 8.70676H6.59422V8.61776H6.784V8.49355H6.59422V8.41009H6.80362V8.28502H6.47266V8.8093L6.8077 8.82715V8.70676Z" fill="white"/>
<path d="M7.77908 8.28533H7.64784L7.56968 8.68863L7.4824 8.28533H7.37605L7.28877 8.68863L7.21061 8.28533H7.0791L7.21702 8.84911L7.35116 8.85938L7.42909 8.50439L7.50729 8.85938L7.63875 8.85265L7.77908 8.28533Z" fill="white"/>
<path d="M8.0498 8.28523V8.83203L8.38458 8.81505V8.70697H8.17137V8.61796H8.36115V8.49376H8.17137V8.41029H8.38076V8.28523H8.0498Z" fill="white"/>
<path d="M8.9941 8.5159H8.91649V8.39992H8.9941C9.02861 8.39992 9.05236 8.41926 9.05236 8.45791C9.05236 8.4966 9.02861 8.5159 8.9941 8.5159ZM9.17715 8.45441C9.17715 8.32172 9.08192 8.28512 8.98878 8.28512H8.79492V8.7915L8.91649 8.7836V8.62339H8.96889L9.07198 8.77684L9.20463 8.77071L9.08923 8.60495C9.13964 8.5827 9.17715 8.53756 9.17715 8.45441Z" fill="white"/>
<path d="M9.7933 8.47041L9.69167 8.28531H9.55371L9.733 8.58021V8.73779L9.85365 8.73312V8.58021L10.0328 8.28531H9.89521L9.7933 8.47041Z" fill="white"/>
<path d="M11.3782 8.83226L7.45132 9.3975C7.44896 9.39809 7.4466 9.39777 7.44428 9.3975L3.51736 8.83226C3.48691 8.82845 3.47609 8.85538 3.50594 8.86064L7.44782 9.54541L11.3897 8.86064C11.4196 8.85538 11.4084 8.82845 11.3782 8.83226Z" fill="white"/>
<path d="M9.43376 5.29926L9.39339 5.27083C9.41592 5.19441 9.38867 5.10917 9.31983 5.06117C9.25071 5.01281 9.16284 5.01576 9.09872 5.06171L9.05889 5.03333C9.13591 4.97007 9.24985 4.96185 9.34267 5.01984C9.43231 5.07606 9.46923 5.20058 9.43376 5.29926ZM9.08142 5.41729C8.99091 5.35843 8.95404 5.24595 8.98392 5.14641L9.02374 5.17479C9.00676 5.25035 9.036 5.33237 9.10371 5.37719C9.16756 5.41965 9.24926 5.41788 9.31133 5.37891L9.35089 5.40702C9.27242 5.46415 9.16488 5.47178 9.08142 5.41729ZM9.34825 5.23864C9.34562 5.25771 9.33944 5.2761 9.32864 5.29254C9.31251 5.31684 9.28995 5.335 9.26451 5.34581C9.22292 5.3637 9.17369 5.36139 9.13387 5.33559C9.09022 5.30716 9.06825 5.25771 9.0712 5.20848C9.07233 5.18473 9.0791 5.1613 9.09259 5.13996C9.10576 5.11975 9.12392 5.10449 9.1444 5.09396C9.18772 5.07139 9.24222 5.07198 9.28822 5.101C9.333 5.12911 9.35529 5.18623 9.34825 5.23864ZM9.3963 4.9525C9.26624 4.8614 9.09608 4.87753 8.98682 4.98206C8.97075 4.99759 8.95608 5.01489 8.94323 5.03388C8.92974 5.05322 8.91916 5.07348 8.91071 5.09455C8.85359 5.23423 8.90045 5.40148 9.03019 5.4879C9.15348 5.57019 9.31633 5.55407 9.42441 5.45888C9.44403 5.4419 9.46187 5.42228 9.4774 5.40003C9.48821 5.38391 9.49734 5.36724 9.5052 5.35021C9.5685 5.21112 9.52599 5.04328 9.3963 4.9525Z" fill="white"/>
<path d="M10.1647 5.50614L10.2576 5.37522C10.2766 5.34824 10.2702 5.31078 10.2435 5.29175C10.2435 5.29175 10.0672 5.10515 9.55031 4.74404C9.03366 4.38293 8.79875 4.26636 8.79875 4.26636C8.77182 4.24706 8.73431 4.25378 8.71528 4.28043L8.58994 4.45704L8.57237 4.48192L8.092 5.15874C8.07479 5.18308 8.08033 5.21737 8.10495 5.23494L8.11662 5.24343C8.13483 5.25601 8.15971 5.25165 8.17229 5.23376L8.30176 5.10724C8.33514 5.08145 8.37001 5.0671 8.40248 5.09026L8.50498 5.16319L8.89397 4.61548C8.93176 4.56217 9.00587 4.54959 9.05914 4.58737L9.86306 5.15819C9.91637 5.19598 9.92899 5.27036 9.89121 5.32336L9.50253 5.87106L9.58809 5.93196C9.61125 5.94808 9.61793 5.97592 9.61443 6.00199L9.77727 6.05176L10.1144 5.57671L10.1647 5.50614Z" fill="white"/>
<path d="M10.662 4.95668L10.6137 5.02498C10.3613 4.79125 10.0786 4.55988 9.76906 4.34022C9.4905 4.14254 9.21054 3.96943 8.9358 3.81889L8.97304 3.76644C8.98621 3.75414 9.05591 3.6956 9.1288 3.72925L9.13289 3.7313L9.13734 3.73275C9.3643 3.8139 9.66683 3.98083 9.94684 4.17942C10.2526 4.39676 10.5094 4.62899 10.6357 4.80414C10.6597 4.83489 10.6881 4.9189 10.662 4.95668ZM10.4749 5.22061C10.2224 4.98688 9.94012 4.75551 9.63019 4.53585C9.35172 4.33786 9.07199 4.16479 8.79698 4.01453L8.86555 3.91816C9.13793 4.0737 9.41557 4.24971 9.69317 4.4468C10.0022 4.66587 10.2866 4.89374 10.544 5.12307L10.4749 5.22061ZM10.7203 4.74293C10.5865 4.55751 10.3264 4.32087 10.0071 4.0945C9.71983 3.89033 9.40794 3.7184 9.17303 3.63466C9.06967 3.58661 8.96541 3.63171 8.9021 3.6897C8.89684 3.69469 8.89189 3.70028 8.8878 3.70614L7.87998 5.12543C7.82898 5.19745 7.84597 5.2979 7.91835 5.34917L8.04723 5.44059C8.11485 5.48859 8.17929 5.44377 8.22615 5.41098C8.31461 5.34917 8.37465 5.31988 8.42092 5.35267C8.42269 5.35412 8.43232 5.36089 8.44844 5.37229C8.50643 5.45548 8.50611 5.55798 8.48622 5.65261L9.4252 5.94929L9.41348 5.9408L9.41848 5.94225C9.41348 5.93521 9.40763 5.92876 9.40118 5.92409C9.38242 5.91092 8.5003 5.28092 8.48155 5.26775C8.31897 5.15204 8.13478 5.37465 8.10754 5.35535L7.97866 5.26394C7.95377 5.24609 7.94764 5.21094 7.96517 5.18601L8.72668 4.11353C8.99906 4.26901 9.27702 4.44507 9.55467 4.64216C9.86333 4.86154 10.1477 5.08937 10.4055 5.31843L9.8651 6.07962L9.97028 6.11182L10.7482 5.01617C10.8093 4.92712 10.759 4.79238 10.7203 4.74293Z" fill="white"/>
<path d="M11.5571 6.64611L7.48345 5.67403L7.48232 5.67434L7.48114 5.67403L3.40748 6.64611C3.38903 6.65051 3.39545 6.67481 3.4145 6.67158L7.47296 5.86648C7.4785 5.86557 7.48668 5.86557 7.49167 5.86648L11.5504 6.67158C11.5691 6.67481 11.5759 6.65051 11.5571 6.64611Z" fill="white"/>
<path d="M4.40779 5.39208C4.21743 5.68262 4.06747 6.00219 3.96582 6.34277L4.09411 6.30735C4.18696 6.01772 4.3167 5.74443 4.47718 5.49258L4.40779 5.39208Z" fill="white"/>
<path d="M10.5523 5.49383L10.4756 5.58547C10.6024 5.799 10.7081 6.02655 10.7881 6.2661L10.9184 6.3042C10.8294 6.0172 10.7057 5.74568 10.5523 5.49383Z" fill="white"/>
<path d="M8.57628 3.9157C8.21984 3.80413 7.83997 3.74582 7.44635 3.75049C7.17833 3.75372 6.91766 3.78596 6.66699 3.84395L6.7332 3.94413C6.96367 3.89372 7.20267 3.86588 7.4478 3.86266C7.81477 3.85857 8.16916 3.91098 8.50303 4.01147L8.57628 3.9157Z" fill="white"/>
<path d="M8.88192 10.6899C8.44374 10.8858 7.95848 10.9948 7.44741 10.9948C7.05696 10.9948 6.6815 10.9309 6.33033 10.8138C6.30368 10.846 6.27793 10.8773 6.25391 10.9064C6.62764 11.036 7.02917 11.1069 7.44741 11.1069C7.99072 11.1069 8.50614 10.9875 8.96893 10.7737L8.88192 10.6899Z" fill="white"/>
<path d="M9.71681 10.2911L9.8228 10.2102C9.83951 10.1976 9.8629 10.2038 9.87202 10.2234L9.97334 10.4437C9.98033 10.4589 9.97597 10.4773 9.9628 10.4873L9.88955 10.543C9.87493 10.5544 9.85413 10.5509 9.84333 10.5353L9.7095 10.3397C9.6986 10.3242 9.70187 10.3025 9.71681 10.2911ZM9.87552 10.6329L9.99822 10.545C10.0381 10.5166 10.0504 10.4621 10.0275 10.4164L9.88138 10.1233C9.87434 10.1098 9.85763 10.1051 9.84591 10.1133L9.6169 10.2779C9.60637 10.2852 9.60432 10.3001 9.61223 10.311L9.84242 10.6267C9.85032 10.6378 9.86494 10.6405 9.87552 10.6329Z" fill="white"/>
<path d="M9.65584 10.6994L9.58173 10.751C9.56888 10.76 9.55067 10.7589 9.53896 10.7481L9.3703 10.5905C9.35531 10.5767 9.35708 10.553 9.37411 10.5413L9.48096 10.4669C9.49591 10.4564 9.51702 10.4599 9.52783 10.4742L9.66347 10.6546C9.67428 10.669 9.67078 10.6889 9.65584 10.6994ZM9.49913 10.362L9.26717 10.5281C9.25545 10.5366 9.25459 10.5542 9.26544 10.5647L9.50848 10.8025C9.54045 10.8339 9.58877 10.8385 9.62333 10.8137L9.75775 10.717C9.76828 10.7097 9.77033 10.6948 9.76243 10.6839L9.53223 10.3679C9.52433 10.357 9.50939 10.3545 9.49913 10.362Z" fill="white"/>
<path d="M9.34651 10.2814L9.20474 10.3877C9.19216 10.3971 9.17459 10.3959 9.16314 10.3845L9.06328 10.2838C9.02904 10.2495 9.03313 10.1918 9.0715 10.1628L9.19775 10.0682C9.21205 10.0574 9.23253 10.0609 9.24284 10.0758L9.35383 10.2346C9.36409 10.2498 9.36086 10.2706 9.34651 10.2814ZM9.21441 9.9707L8.99035 10.1315C8.93999 10.1675 8.93649 10.2422 8.98272 10.2876L9.16491 10.466C9.17341 10.4741 9.1863 10.4756 9.19538 10.4689L9.4461 10.289C9.45664 10.2814 9.45868 10.2665 9.45078 10.2557L9.24752 9.97684C9.23962 9.96599 9.22468 9.96308 9.21441 9.9707Z" fill="white"/>
<path d="M9.71629 10.0017L9.57833 10.1094C9.56425 10.1206 9.54436 10.1171 9.53442 10.1018L9.42634 9.94045C9.41612 9.92523 9.4193 9.90383 9.43333 9.89303L9.55345 9.79898C9.59236 9.76852 9.64745 9.78346 9.66856 9.83036L9.72628 9.9592C9.73269 9.97414 9.72855 9.99198 9.71629 10.0017ZM9.70017 9.7609C9.67379 9.70762 9.60676 9.68914 9.56048 9.7223L9.33175 9.88659C9.32121 9.8939 9.31917 9.90884 9.32707 9.91964L9.53029 10.1985C9.53823 10.2096 9.55317 10.2123 9.56344 10.2047L9.81148 10.0269C9.82056 10.0204 9.82346 10.0078 9.8182 9.99725L9.70017 9.7609Z" fill="white"/>
<path d="M4.70998 9.68517C4.5697 9.51179 4.44522 9.32465 4.3395 9.12607L4.19922 9.09946C4.31842 9.33755 4.46367 9.56043 4.63033 9.76514L4.70998 9.68517Z" fill="white"/>
<path d="M10.13 9.92334C10.3575 9.67407 10.5517 9.39352 10.7034 9.08804L10.5634 9.1147C10.4296 9.36864 10.265 9.60438 10.0752 9.81703L10.13 9.92334Z" fill="white"/>
<path d="M10.3215 10.6229L10.2802 10.5385C10.2796 10.5362 10.2785 10.5335 10.2766 10.5309L10.2758 10.53L9.94599 9.85818L9.72402 9.40011C9.70903 9.36964 9.67184 9.35647 9.63174 9.37137L9.56703 9.38395C9.50582 9.42119 9.53216 9.53453 9.43348 9.60597L9.36758 9.65342C9.3125 9.69356 9.24951 9.68626 9.20942 9.63118L9.02986 9.37959L8.94666 9.39775L8.95343 9.40743L8.94026 9.41006L9.18539 9.74247C9.22113 9.79079 9.28789 9.80278 9.33475 9.76972L9.48824 9.66105C9.59364 9.58635 9.58079 9.49121 9.601 9.48181L9.61331 9.47626C9.63347 9.46686 9.6584 9.47594 9.66866 9.49616L9.95244 10.0582L10.2201 10.5948C10.2304 10.6153 10.2225 10.6396 10.2026 10.6489L10.1899 10.6548C10.1733 10.6624 10.1507 10.6442 10.1366 10.6363C10.1165 10.6255 10.0963 10.6164 10.0731 10.6188C10.052 10.6214 10.0336 10.6331 10.0172 10.6463C9.92315 10.7234 9.8242 10.7974 9.72048 10.8616C9.70086 10.8735 9.68183 10.8894 9.67566 10.9116C9.67248 10.9234 9.67507 10.9365 9.67834 10.9503C9.68006 10.9582 9.68242 10.9667 9.68474 10.9752C9.68883 10.9931 9.69028 11.01 9.67802 11.0226L9.67012 11.0308C9.65518 11.0467 9.62966 11.0464 9.61358 11.0305L8.72383 10.1598C8.7098 10.1461 8.70798 10.125 8.71738 10.1094L8.72029 10.1062C8.73555 10.0907 8.81606 10.137 8.8934 10.0822L9.08376 9.9475C9.10343 9.93343 9.11628 9.91354 9.12214 9.89183C9.13589 9.85877 9.13235 9.81862 9.10869 9.78643L8.84217 9.42028L8.75017 9.43818L8.75694 9.44756L8.7414 9.45047L8.98772 9.78407C9.01378 9.81976 9.02282 9.85786 9.01201 9.89183C9.01174 9.89242 9.01142 9.89273 9.0111 9.89328C9.01056 9.89565 9.00938 9.89742 9.00852 9.89972C9.00089 9.9123 8.99003 9.92408 8.976 9.93434L8.90452 9.98787C8.79177 10.0693 8.73582 9.98056 8.66965 10.0603L8.61016 10.1209C8.6093 10.1217 8.60871 10.1232 8.6078 10.1247L8.60022 10.1326C8.58968 10.1431 8.59027 10.1824 8.61516 10.2064L9.51781 11.071L9.51867 11.0721C9.52044 11.0745 9.52248 11.0763 9.52516 11.0777L9.59278 11.1427C9.61771 11.1664 9.65754 11.1659 9.68152 11.1416C9.71344 11.109 9.7861 11.0663 9.76148 11.0112C9.76058 11.0071 9.75944 11.0033 9.75767 10.9995C9.75327 10.9898 9.74886 10.9858 9.74568 10.9805C9.74568 10.9793 9.74536 10.979 9.74505 10.9778C9.74069 10.926 9.84936 10.8762 9.88451 10.8516C9.94804 10.8071 10.0107 10.75 10.081 10.7163C10.0874 10.7131 10.0942 10.7113 10.1012 10.7119C10.129 10.7137 10.1273 10.7318 10.1472 10.7444C10.1645 10.7552 10.1885 10.7552 10.2064 10.7467L10.2925 10.7055C10.3235 10.6905 10.3367 10.6533 10.3215 10.6229Z" fill="white"/>
</svg>
